<svg width="48" height="48" viewBox="0 0 48 48" fill="none" xmlns="http://www.w3.org/2000/svg">
<path d="M1 24C1 11.3527 11.3527 1 24 1C36.6473 1 47 11.3527 47 24C47 36.6473 36.6473 47 24 47C11.3527 47 1 36.6473 1 24Z" stroke="#A8A816" stroke-width="2"/>
<path d="M18.9485 17.684C18.3513 17.883 17.8827 18.3517 17.6836 18.9489L12.6325 34.1023C12.3719 34.884 13.1156 35.6278 13.8974 35.3672L29.0508 30.3161C29.648 30.117 30.1166 29.6484 30.3157 29.0511L35.3668 13.8977C35.6274 13.116 34.8837 12.3722 34.1019 12.6328L18.9485 17.684Z" fill="#A8A816"/>
</svg>
