<svg width="24" height="25" viewBox="0 0 24 25" fill="none" xmlns="http://www.w3.org/2000/svg">
<path fill-rule="evenodd" clip-rule="evenodd" d="M11.811 19.545C11.4317 19.1435 11.4498 18.5106 11.8513 18.1314L17.814 12.5L11.8513 6.86856C11.4498 6.48934 11.4317 5.85644 11.811 5.45492C12.1902 5.0534 12.8231 5.03532 13.2246 5.41453L19.9571 11.773C20.1571 11.9619 20.2704 12.2249 20.2704 12.5C20.2704 12.7751 20.1571 13.0381 19.9571 13.227L13.2246 19.5854C12.8231 19.9647 12.1902 19.9466 11.811 19.545Z" fill="white"/>
<path fill-rule="evenodd" clip-rule="evenodd" d="M19.2704 12.5C19.2704 13.0049 18.861 13.4142 18.3561 13.4142L3.72753 13.4142C3.22258 13.4142 2.81324 13.0049 2.81324 12.5C2.81324 11.995 3.22258 11.5857 3.72753 11.5857L18.3561 11.5857C18.861 11.5857 19.2704 11.995 19.2704 12.5Z" fill="white"/>
</svg>
