<svg width="24" height="25" viewBox="0 0 24 25" fill="none" xmlns="http://www.w3.org/2000/svg">
<path fill-rule="evenodd" clip-rule="evenodd" d="M11.8111 19.545C11.4319 19.1435 11.4499 18.5106 11.8515 18.1314L17.8142 12.5L11.8515 6.86856C11.4499 6.48934 11.4319 5.85644 11.8111 5.45492C12.1903 5.0534 12.8232 5.03532 13.2247 5.41453L19.9572 11.773C20.1572 11.9619 20.2706 12.2249 20.2706 12.5C20.2706 12.7751 20.1572 13.0381 19.9572 13.227L13.2247 19.5854C12.8232 19.9647 12.1903 19.9466 11.8111 19.545Z" fill="black"/>
<path fill-rule="evenodd" clip-rule="evenodd" d="M19.2705 12.5C19.2705 13.0049 18.8612 13.4142 18.3562 13.4142L3.72765 13.4142C3.2227 13.4142 2.81336 13.0049 2.81336 12.5C2.81336 11.995 3.2227 11.5857 3.72765 11.5857L18.3562 11.5857C18.8612 11.5857 19.2705 11.995 19.2705 12.5Z" fill="black"/>
</svg>
