<svg width="24" height="24" viewBox="0 0 24 24" fill="none" xmlns="http://www.w3.org/2000/svg">
<path fill-rule="evenodd" clip-rule="evenodd" d="M7.04988 16.9498C6.65936 16.5592 6.65936 15.9261 7.04988 15.5355L15.5352 7.05026C15.9257 6.65973 16.5589 6.65973 16.9494 7.05026C17.3399 7.44078 17.3399 8.07395 16.9494 8.46447L8.46409 16.9498C8.07357 17.3403 7.4404 17.3403 7.04988 16.9498Z" fill="black"/>
<path fill-rule="evenodd" clip-rule="evenodd" d="M7.05071 7.05025C7.44123 6.65972 8.07439 6.65972 8.46492 7.05025L16.9502 15.5355C17.3407 15.9261 17.3407 16.5592 16.9502 16.9497C16.5597 17.3403 15.9265 17.3403 15.536 16.9497L7.05071 8.46446C6.66018 8.07394 6.66018 7.44077 7.05071 7.05025Z" fill="black"/>
</svg>
