<svg width="48" height="48" viewBox="0 0 48 48" fill="none" xmlns="http://www.w3.org/2000/svg">
<path d="M1 24C1 11.3527 11.3527 1 24 1C36.6473 1 47 11.3527 47 24C47 36.6473 36.6473 47 24 47C11.3527 47 1 36.6473 1 24Z" stroke="#A8A816" stroke-width="2"/>
<path d="M27.0423 26.6735C26.1173 27.2256 25.0645 27.5054 23.9979 27.5054C22.9312 27.5054 21.8812 27.2256 20.9535 26.6735L14.4841 22.8015L12.748 21.7598V28.0574C12.748 30.7854 15.2147 33.0012 18.2452 33.0012H29.7506C32.7839 33.0012 35.2477 30.7829 35.2477 28.0574V21.7598L33.5116 22.8015L27.0423 26.6735Z" fill="#A8A816"/>
<path d="M21.9139 25.3718C23.175 26.1312 24.8194 26.1312 26.0805 25.3718L33.4887 20.9477V20.9377L35.0276 20.0209C34.6804 18.9067 33.8943 17.9275 32.7943 17.263L27.0416 13.8281C25.1888 12.724 22.8055 12.724 20.9528 13.8281L15.2001 17.263C14.1001 17.93 13.314 18.9067 12.9668 20.0209L14.5057 20.9377V20.9477L21.9139 25.3718Z" fill="#A8A816"/>
</svg>
