<svg version="1.2" xmlns="http://www.w3.org/2000/svg" viewBox="0 0 30 30" width="30" height="30">
	<title>icon-new-tab-white-svg</title>
	<style>
		.s0 { fill: #ffffff } 
	</style>
	<path id="Layer" class="s0" d="m26 3q0 0 0 0-0.1 0-0.1 0 0 0 0 0 0 0 0 0h-5.9q-0.4 0-0.7 0.3-0.3 0.3-0.3 0.7 0 0.4 0.3 0.7 0.3 0.3 0.7 0.3h3.6l-10.3 10.3q-0.3 0.3-0.3 0.7 0 0.4 0.3 0.7 0.3 0.3 0.7 0.3 0.4 0 0.7-0.3l10.3-10.3v3.6q0 0.4 0.3 0.7 0.3 0.3 0.7 0.3 0.4 0 0.7-0.3 0.3-0.3 0.3-0.7v-5.9q0-0.2 0-0.4-0.1-0.2-0.2-0.4-0.2-0.1-0.4-0.2-0.2-0.1-0.4-0.1zm-20 4c-1.1 0-2 0.9-2 2v15c0 1.1 0.9 2 2 2h15c1.1 0 2-0.9 2-2v-10-2.6l-2 2v2.6 8h-15v-15h8 2 0.6l2-2h-2.6-2z"/>
</svg>