<svg width="96" height="97" viewBox="0 0 96 97" fill="none" xmlns="http://www.w3.org/2000/svg">
<rect y="0.5" width="96" height="96" rx="48" fill="#A8A816"/>
<g clip-path="url(#clip0_707_16207)">
<path d="M55.3288 72.9871C54.8556 73.0916 54.4659 73.2239 54.0699 73.2392C53.9338 73.2454 53.7173 72.984 53.6555 72.8057C53.1018 71.1853 52.5203 69.5742 52.0532 67.9292C51.0727 64.4855 48.7003 62.5238 45.3628 61.5553C43.6059 61.0449 42.0594 60.184 40.7077 58.9602C39.0961 57.4997 37.8403 55.7963 36.999 53.7885C35.3751 49.9206 34.3668 45.9019 33.9059 41.7449C33.5811 38.8054 33.4976 35.8629 34.0389 32.945C34.608 29.8888 35.9628 27.266 38.6105 25.455C41.9666 23.1582 46.2536 23.2074 49.8478 25.5349C52.1182 27.0077 53.7823 29.0494 55.2453 31.257C58.3601 35.949 60.5408 41.0469 61.58 46.5783C62.3224 50.5232 61.5739 54.1729 59.0189 57.3952C57.8528 58.868 56.996 60.516 56.7022 62.4101C56.5011 63.723 56.8197 64.9775 57.1476 66.2196C57.5837 67.8738 58.0972 69.5065 58.5828 71.1484C58.7993 71.8802 58.8117 71.8771 58.0663 72.1446C57.8621 72.2184 57.6518 72.283 57.3672 72.3783C56.9929 71.1669 56.5877 70.0077 56.2846 68.8239C55.8732 67.2251 55.4742 65.6201 55.1835 63.9966C54.8958 62.3855 55.3258 60.8358 56.0495 59.4091C56.6187 58.2838 57.293 57.1892 58.0477 56.1776C59.9562 53.6287 60.6799 50.7384 60.1912 47.6852C59.1179 40.9854 56.3681 34.9713 52.1213 29.6551C50.6335 27.7949 48.8209 26.3252 46.4856 25.618C42.3037 24.345 38.0321 26.4881 36.2659 30.7251C35.6721 32.1517 35.3627 33.6461 35.2761 35.1742C34.905 41.5788 36.0061 47.7467 38.6074 53.6071C40.0334 56.8233 42.4398 59.0955 45.9196 60.144C48.1652 60.8235 50.2004 61.8966 51.6821 63.7875C52.6904 65.0728 53.1946 66.6009 53.7204 68.1106C54.2772 69.7033 54.7783 71.3114 55.3288 72.9871Z" fill="white"/>
<path d="M36.733 38.5403C36.6062 35.4226 37.1784 32.4647 38.9229 29.8051C39.0126 29.6667 39.1023 29.5222 39.2106 29.3992C39.656 28.8857 40.3457 28.7781 40.853 29.1378C41.3974 29.5222 41.5459 30.2078 41.1623 30.7982C40.1292 32.3817 39.3838 34.0881 39.2168 35.9668C39.0807 37.5011 39.1518 39.0507 39.1332 40.5942C39.1332 40.8156 39.1487 41.037 39.1456 41.2553C39.1363 42.0947 38.7342 42.5252 37.9579 42.5313C37.1444 42.5375 36.7423 42.1193 36.7361 41.243C36.7299 40.3421 36.7361 39.4412 36.7361 38.5403H36.733Z" fill="white"/>
</g>
<defs>
<clipPath id="clip0_707_16207">
<rect width="28.2062" height="49.4845" fill="white" transform="translate(33.6494 23.7576)"/>
</clipPath>
</defs>
</svg>
