<svg width="19" height="19" viewBox="0 0 19 19" fill="none" xmlns="http://www.w3.org/2000/svg">
<path d="M5.2373 0.5C2.4773 0.5 0.237305 2.74 0.237305 5.5V13.5C0.237305 16.26 2.4773 18.5 5.2373 18.5H13.2373C15.9973 18.5 18.2373 16.26 18.2373 13.5V5.5C18.2373 2.74 15.9973 0.5 13.2373 0.5H5.2373ZM15.2373 2.5C15.7873 2.5 16.2373 2.95 16.2373 3.5C16.2373 4.05 15.7873 4.5 15.2373 4.5C14.6873 4.5 14.2373 4.05 14.2373 3.5C14.2373 2.95 14.6873 2.5 15.2373 2.5ZM9.2373 4.5C11.9973 4.5 14.2373 6.74 14.2373 9.5C14.2373 12.26 11.9973 14.5 9.2373 14.5C6.4773 14.5 4.2373 12.26 4.2373 9.5C4.2373 6.74 6.4773 4.5 9.2373 4.5ZM9.2373 6.5C7.5773 6.5 6.2373 7.84 6.2373 9.5C6.2373 11.16 7.5773 12.5 9.2373 12.5C10.8973 12.5 12.2373 11.16 12.2373 9.5C12.2373 7.84 10.8973 6.5 9.2373 6.5Z" fill="white"/>
</svg>
