<svg width="19" height="19" viewBox="0 0 19 19" fill="none" xmlns="http://www.w3.org/2000/svg">
<path d="M16.2373 0.5H2.2373C1.1273 0.5 0.237305 1.39 0.237305 2.5V16.5C0.237305 17.6 1.1273 18.5 2.2373 18.5H16.2373C17.3373 18.5 18.2373 17.6 18.2373 16.5V2.5C18.2373 1.39 17.3373 0.5 16.2373 0.5ZM6.2373 14.5H3.7173V7.5H6.2373V14.5ZM4.9273 6.22C4.1573 6.22 3.6373 5.71 3.6373 5.02C3.6373 4.33 4.1473 3.82 5.0073 3.82C5.7773 3.82 6.2973 4.33 6.2973 5.02C6.2973 5.71 5.7873 6.22 4.9273 6.22ZM15.2373 14.5H12.7973V10.67C12.7973 9.61 12.1473 9.37 11.8973 9.37C11.6473 9.37 10.8373 9.53 10.8373 10.67V14.5H8.3173V7.5H10.8373V8.48C11.1573 7.91 11.8173 7.5 13.0373 7.5C14.2573 7.5 15.2373 8.48 15.2373 10.67V14.5Z" fill="white"/>
</svg>
