<svg width="48" height="48" viewBox="0 0 48 48" fill="none" xmlns="http://www.w3.org/2000/svg">
<path d="M1 24C1 11.3527 11.3527 1 24 1C36.6473 1 47 11.3527 47 24C47 36.6473 36.6473 47 24 47C11.3527 47 1 36.6473 1 24Z" stroke="#A8A816" stroke-width="2"/>
<path d="M35.08 28.3208L32.8449 26.0881C32.25 25.4932 31.4585 25.1671 30.6171 25.1671C29.7758 25.1671 28.9818 25.4932 28.3894 26.0881L28.1704 26.3071C28.026 26.4515 27.5257 26.4664 26.7715 26.1653C25.8581 25.7969 24.8027 25.0551 23.8718 24.1267C22.9409 23.1983 22.2016 22.1429 21.8332 21.227C21.5296 20.4703 21.5445 19.9725 21.6914 19.8281L21.9104 19.6091C22.5053 19.0142 22.8314 18.2227 22.8314 17.3814C22.8314 16.54 22.5053 15.746 21.9104 15.1536L19.6777 12.921C19.0828 12.3261 18.2913 12 17.45 12C16.6087 12 15.8147 12.3261 15.2223 12.921L13.0493 15.0864C11.7426 16.3932 11.6505 18.6782 12.793 21.5157C13.8458 24.1367 15.8471 26.9991 18.4232 29.5753C20.9994 32.1514 23.8618 34.1502 26.4828 35.2055C27.802 35.7357 29.0017 36.002 30.0372 36.002C31.2319 36.002 32.2101 35.6511 32.9121 34.9516L35.0825 32.7837C36.3096 31.5516 36.3096 29.5529 35.0825 28.3233L35.08 28.3208Z" fill="#A8A816"/>
</svg>
