<svg width="48" height="48" viewBox="0 0 48 48" fill="none" xmlns="http://www.w3.org/2000/svg">
<path d="M1 24C1 11.3527 11.3527 1 24 1C36.6473 1 47 11.3527 47 24C47 36.6473 36.6473 47 24 47C11.3527 47 1 36.6473 1 24Z" stroke="#A8A816" stroke-width="2"/>
<path d="M28.8029 35.4664C31.0099 34.4809 32.8871 32.8285 34.1857 30.7132C34.6779 29.9101 34.115 28.8539 33.1987 28.8539H29.7088C29.1694 28.8539 28.7034 29.2377 28.5777 29.7849C28.2557 31.1896 27.8185 32.5617 27.2687 33.8847C26.855 34.8838 27.8421 35.8965 28.8055 35.4664H28.8029Z" fill="#A8A816"/>
<path d="M22.8291 35.2296C23.0752 35.706 23.5517 36 24.0701 36C24.5885 36 25.065 35.7032 25.3111 35.2296C26.1148 33.6751 26.7484 32.0336 27.2013 30.3375C27.4003 29.5916 26.8662 28.8539 26.1227 28.8539H22.0777C21.3028 28.8539 20.7451 29.6243 20.9546 30.4002C21.4049 32.0744 22.0332 33.6942 22.8291 35.2296Z" fill="#A8A816"/>
<path d="M29.0598 21.7296C29.1933 23.2405 29.1933 24.7595 29.0598 26.2704C28.9969 26.9864 29.5284 27.6043 30.217 27.6043H34.5839C35.139 27.6043 35.6102 27.1987 35.728 26.6352C36.0893 24.8984 36.0893 23.1016 35.728 21.3648C35.6102 20.8013 35.139 20.3956 34.5839 20.3956H30.217C29.5258 20.3956 28.9969 21.0163 29.0598 21.7296Z" fill="#A8A816"/>
<path d="M27.8292 26.5317C28.002 24.8493 28.002 23.1506 27.8292 21.4682C27.7663 20.8557 27.2611 20.3956 26.6694 20.3956H21.3285C20.7368 20.3956 20.2315 20.8557 20.1687 21.4682C19.9959 23.1506 19.9959 24.8493 20.1687 26.5317C20.2315 27.1443 20.7368 27.6043 21.3285 27.6043H26.6694C27.2611 27.6043 27.7663 27.1443 27.8292 26.5317Z" fill="#A8A816"/>
<path d="M18.9373 26.2704C18.8038 24.7595 18.8038 23.2405 18.9373 21.7296C19.0001 21.0136 18.4686 20.3956 17.7801 20.3956H13.4131C12.8581 20.3956 12.3868 20.8013 12.269 21.3648C11.9077 23.1016 11.9077 24.8984 12.269 26.6352C12.3868 27.1987 12.8581 27.6043 13.4131 27.6043H17.7801C18.4713 27.6043 19.0001 26.9836 18.9373 26.2704Z" fill="#A8A816"/>
<path d="M27.1971 14.118C27.7469 15.441 28.1841 16.8131 28.5061 18.2178C28.6318 18.7623 29.0978 19.1489 29.6372 19.1489H33.1271C34.0434 19.1489 34.6089 18.0953 34.1141 17.2895C32.8155 15.1743 30.9383 13.5191 28.7313 12.5363C27.7678 12.1062 26.7808 13.1189 27.1945 14.118H27.1971Z" fill="#A8A816"/>
<path d="M22.7607 12.7704C21.9675 14.3058 21.3391 15.9256 20.8862 17.5998C20.6768 18.3757 21.2344 19.1461 22.0094 19.1461H26.0543C26.7978 19.1461 27.3293 18.4083 27.133 17.6624C26.68 15.9664 26.0464 14.3249 25.2427 12.7704C24.9966 12.294 24.5201 12 24.0017 12C23.4833 12 23.0068 12.2967 22.7607 12.7704Z" fill="#A8A816"/>
<path d="M19.4617 18.3511C19.7863 16.9001 20.234 15.4818 20.8021 14.1152C21.2158 13.1161 20.2288 12.1034 19.2653 12.5335C16.9509 13.568 14.9978 15.3375 13.6966 17.6025C13.3065 18.2831 13.7909 19.146 14.5527 19.146H18.493C18.9538 19.146 19.3569 18.8166 19.4617 18.3511Z" fill="#A8A816"/>
<path d="M18.5633 28.8512H14.6231C13.8612 28.8512 13.3769 29.7142 13.7669 30.3948C15.0681 32.6597 17.0212 34.4292 19.3356 35.4637C20.2991 35.8938 21.2861 34.8811 20.8724 33.882C20.3069 32.5154 19.8566 31.0998 19.532 29.6461C19.4272 29.1779 19.0241 28.8512 18.5633 28.8512Z" fill="#A8A816"/>
</svg>
