<svg width="19" height="21" viewBox="0 0 19 21" fill="none" xmlns="http://www.w3.org/2000/svg">
<path d="M2.9173 0.5L4.3973 5.84V8.4H5.6773V5.84L7.1773 0.5H5.8873L5.3473 2.93C5.1973 3.64 5.0973 4.14 5.0573 4.45H5.0173C4.9573 4.03 4.8573 3.52 4.7273 2.92L4.2073 0.5H2.9173ZM8.6673 2.52C8.2373 2.52 7.8873 2.6 7.6173 2.78C7.3473 2.95 7.1573 3.23 7.0273 3.6C6.9073 3.98 6.8373 4.48 6.8373 5.1V5.94C6.8373 6.55 6.8873 7.05 6.9973 7.42C7.1073 7.79 7.2973 8.06 7.5573 8.24C7.8173 8.42 8.1773 8.5 8.6373 8.5C9.0973 8.5 9.4373 8.41 9.6973 8.24C9.9573 8.07 10.1473 7.8 10.2573 7.42C10.3673 7.04 10.4273 6.55 10.4273 5.94V5.1C10.4273 4.48 10.3673 3.98 10.2473 3.61C10.1273 3.24 9.9373 2.96 9.6773 2.79C9.4173 2.61 9.0773 2.53 8.6473 2.53L8.6673 2.52ZM11.1173 2.63V6.94C11.1173 7.47 11.2073 7.87 11.3873 8.12C11.5673 8.37 11.8473 8.5 12.2373 8.5C12.7873 8.5 13.2073 8.23 13.4773 7.7H13.5073L13.6173 8.41H14.6373V2.63H13.3373V7.22C13.2873 7.33 13.2073 7.41 13.1073 7.48C13.0073 7.55 12.8973 7.58 12.7873 7.58C12.6573 7.58 12.5573 7.53 12.5073 7.42C12.4573 7.31 12.4173 7.13 12.4173 6.87V2.63H11.1173ZM8.6373 3.41C8.8173 3.41 8.9473 3.51 9.0173 3.7C9.0873 3.89 9.12731 4.2 9.12731 4.61V6.41C9.12731 6.84 9.0873 7.15 9.0173 7.33C8.9473 7.52 8.8173 7.61 8.6373 7.61C8.4573 7.61 8.32731 7.51 8.25731 7.33C8.18731 7.14 8.1573 6.83 8.1573 6.41V4.61C8.1573 4.2 8.1973 3.89 8.2673 3.7C8.3373 3.51 8.4673 3.41 8.6373 3.41ZM2.2373 9.5C1.1373 9.5 0.237305 10.4 0.237305 11.5V18.5C0.237305 19.6 1.1373 20.5 2.2373 20.5H16.2373C17.3373 20.5 18.2373 19.6 18.2373 18.5V11.5C18.2373 10.4 17.3373 9.5 16.2373 9.5H2.2373ZM9.2873 11.5H10.3473V14.07C10.4373 13.88 10.5773 13.73 10.7573 13.62C10.9373 13.51 11.1173 13.45 11.3273 13.45C11.5873 13.45 11.7873 13.52 11.9373 13.66C12.0873 13.8 12.1973 14.02 12.2573 14.33C12.3273 14.64 12.3573 15.07 12.3573 15.61V16.38C12.3573 17.11 12.2673 17.64 12.0973 17.98C11.9173 18.32 11.6473 18.49 11.2773 18.49C11.0673 18.49 10.8873 18.44 10.7173 18.35C10.5473 18.25 10.4173 18.12 10.3373 17.96H10.3173L10.2073 18.42H9.29731V11.5H9.2873ZM2.7273 11.75H5.9773V12.63H4.8873V18.42H3.8173V12.63H2.7273V11.75ZM14.3373 13.46C14.7173 13.46 15.0073 13.53 15.2073 13.67C15.4073 13.81 15.5473 14.02 15.6373 14.31C15.7173 14.6 15.7573 15 15.7573 15.52V16.36H13.9173V16.61C13.9173 16.92 13.9173 17.16 13.9473 17.31C13.9673 17.47 14.0073 17.58 14.0673 17.65C14.1273 17.72 14.2173 17.76 14.3373 17.76C14.4973 17.76 14.6173 17.7 14.6773 17.57C14.7373 17.44 14.7673 17.23 14.7773 16.94L15.7273 16.99C15.7273 16.99 15.7273 17.09 15.7273 17.17C15.7273 17.62 15.6073 17.96 15.3573 18.18C15.1073 18.4 14.7673 18.51 14.3173 18.51C13.7773 18.51 13.3973 18.34 13.1773 18C12.9573 17.66 12.8473 17.14 12.8473 16.43V15.58C12.8473 14.85 12.9573 14.31 13.1873 13.98C13.4173 13.65 13.7973 13.47 14.3473 13.47L14.3373 13.46ZM5.6473 13.55H6.7473V17.13C6.7473 17.35 6.7673 17.5 6.8173 17.59C6.8673 17.68 6.9473 17.73 7.0573 17.73C7.1573 17.73 7.2473 17.7 7.3373 17.64C7.4273 17.58 7.4873 17.51 7.5273 17.42V13.55H8.62731V18.43H7.7673L7.6773 17.83H7.6473C7.4173 18.28 7.0673 18.51 6.5973 18.51C6.2773 18.51 6.0373 18.4 5.8873 18.19C5.7373 17.98 5.6573 17.65 5.6573 17.2V13.56L5.6473 13.55ZM14.3073 14.2C14.1873 14.2 14.1073 14.24 14.0473 14.3C13.9873 14.37 13.9573 14.48 13.9373 14.64C13.9173 14.8 13.9073 15.03 13.9073 15.35V15.7H14.7073V15.35C14.7073 15.04 14.6973 14.8 14.6773 14.64C14.6573 14.48 14.6173 14.36 14.5573 14.3C14.4973 14.24 14.4173 14.2 14.2973 14.2H14.3073ZM10.8273 14.24C10.7173 14.24 10.6273 14.28 10.5373 14.37C10.4473 14.46 10.3873 14.56 10.3473 14.7V17.47C10.3973 17.56 10.4573 17.62 10.5373 17.66C10.6173 17.7 10.6973 17.72 10.7873 17.72C10.9073 17.72 10.9973 17.68 11.0673 17.59C11.1373 17.51 11.1873 17.36 11.2173 17.16C11.2473 16.96 11.2573 16.68 11.2573 16.32V15.69C11.2573 15.31 11.2473 15.01 11.2173 14.81C11.1973 14.6 11.1473 14.45 11.0873 14.37C11.0273 14.28 10.9373 14.24 10.8273 14.24Z" fill="white"/>
</svg>
